<svg width="18" height="21" fill="none" xmlns="http://www.w3.org/2000/svg"><path d="M16.854 5.73a.164.164 0 00-.163-.152h-2.945v-.82C13.745 2.134 11.616 0 9 0 6.383 0 4.255 2.134 4.255 4.758v.82H1.309a.164.164 0 00-.163.152L0 20.823A.164.164 0 00.164 21h17.672a.163.163 0 00.164-.176L16.854 5.73zm-11.29-.972c0-1.9 1.541-3.446 3.436-3.446a3.445 3.445 0 013.436 3.446v.82H5.564v-.82zm-.655 5.414a1.64 1.64 0 01-1.636-1.64c0-.656.327-1.245.982-1.504V8.53a.655.655 0 101.309 0v-1.5c.654.258.981.853.981 1.502a1.64 1.64 0 01-1.636 1.64zm8.182 0a1.64 1.64 0 01-1.636-1.64c0-.656.327-1.245.981-1.504V8.53a.656.656 0 001.31 0v-1.5c.654.258.981.853.981 1.502a1.64 1.64 0 01-1.636 1.64z" fill="url(#paint0_linear)"/><defs><linearGradient id="paint0_linear" x1="24" y1="-1.75" x2="-7.547" y2="18.239" gradientUnits="userSpaceOnUse"><stop stop-color="#282696" stop-opacity=".96"/><stop offset="1" stop-color="#09ABE4"/></linearGradient></defs></svg>