<svg width="216" height="54" fill="none" xmlns="http://www.w3.org/2000/svg"><path fill-rule="evenodd" clip-rule="evenodd" d="M153.272 8.54v13.541h10.491V8.54c-.041-3.771-3.397-5.192-5.252-5.233-1.978 0-5.239 1.64-5.239 5.233zM158.511 0c4.707 0 8.526 3.908 8.526 8.567v13.514l3.316 3.28h-23.711l3.342-3.28.014-13.582c0-4.741 3.875-8.499 8.513-8.499zM93.3 25.36l3.138-21.876C96.711 1.49 97.584.478 99.03.478c1.269 0 2.142.82 2.619 2.46l5.498 17.517 5.444-17.517c.477-1.64 1.35-2.46 2.633-2.46 1.446 0 2.305 1.011 2.578 3.006l3.138 21.876h-3.138l-2.783-20.236-5.634 18.05c-.532 1.667-1.283 2.5-2.238 2.5-.545 0-.996-.19-1.337-.587-.341-.383-.654-1.025-.955-1.913l-5.62-18.05-2.756 20.236H93.3z" fill="#09ABE4"/><path fill-rule="evenodd" clip-rule="evenodd" d="M164.459 53.412V32.028h-6.876v-3.375h17.067v3.375h-6.849v21.384h-3.342zm35.716-17.982c4.188-3.58 7.244-8.567 8.376-14.141H216a34.574 34.574 0 01-12.701 16.041c5.702 3.922 10.177 9.51 12.701 16.055h-7.449c-1.132-5.575-4.188-10.576-8.376-14.142-.178-.164-.205-.219-.328-.287v-3.252c0-.027.246-.191.328-.273zm-58.908 1.066v16.821h-3.301l.013-3.28.014-13.581c.013-4.742 3.874-8.5 8.526-8.5 4.693 0 8.513 3.908 8.513 8.568v13.514l.027 3.279h-3.315v-3.28h.014v-13.54c-.027-3.772-3.383-5.206-5.239-5.234-1.978 0-5.252 1.64-5.252 5.233zm40.818 8.937V28.599h-3.274v16.875c0 4.741 3.861 8.485 8.513 8.485a8.448 8.448 0 005.225-1.817v1.161h3.315V28.585h-3.315v17.367c-.328 3.375-3.452 4.673-5.225 4.714-1.978 0-5.239-1.64-5.239-5.233z" fill="#282696"/><path fill-rule="evenodd" clip-rule="evenodd" d="M172.685 12.98c0 2.652.969 4.96 2.906 6.956 1.951 1.995 4.284 2.992 7.026 2.992s5.075-.997 7.012-2.992c1.924-1.995 2.879-4.304 2.879-6.955 0-2.624-.955-4.933-2.879-6.928-1.937-1.995-4.27-2.992-7.012-2.992-2.715 0-5.048.984-6.999 2.965-1.95 1.967-2.933 4.277-2.933 6.955zM192.549.575h3.315v24.718h-3.315v-3.935a13.63 13.63 0 01-.751.82c-2.537 2.596-5.593 3.88-9.181 3.88-3.506 0-6.562-1.27-9.154-3.84-2.578-2.568-3.874-5.629-3.874-9.209 0-3.498 1.296-6.531 3.874-9.127C176.055 1.298 179.111 0 182.617 0c3.588 0 6.644 1.284 9.181 3.853.273.26.519.533.751.82v-4.1z" fill="#09ABE4"/><path fill-rule="evenodd" clip-rule="evenodd" d="M111.404 40.91c0 2.65.968 4.974 2.906 6.969 1.937 1.98 4.27 2.978 7.025 2.978 2.743 0 5.075-.997 6.999-2.978 1.924-1.995 2.892-4.318 2.892-6.97 0-2.623-.968-4.932-2.892-6.913-1.924-1.995-4.256-2.993-6.999-2.993-2.728 0-5.061.984-7.012 2.952-1.951 1.968-2.919 4.29-2.919 6.955zm13.356-27.93c0 2.652.968 4.96 2.906 6.956 1.937 1.995 4.283 2.992 7.025 2.992s5.075-.997 6.999-2.992c1.923-1.995 2.892-4.304 2.892-6.955 0-2.624-.969-4.933-2.892-6.928-1.924-1.995-4.257-2.992-6.999-2.992-2.728 0-5.061.984-7.012 2.965-1.951 1.967-2.919 4.277-2.919 6.955zm4.024 11.656a2.115 2.115 0 00-.423-.04 2.552 2.552 0 00-2.537 2.54c0 .793.368 1.49.927 1.955 1.365.642 2.62 1.53 3.766 2.691 2.537 2.57 3.806 5.616 3.806 9.169 0 3.525-1.269 6.572-3.806 9.168-2.538 2.583-5.607 3.881-9.195 3.881-3.506 0-6.562-1.284-9.141-3.853-2.592-2.57-3.888-5.63-3.888-9.196 0-3.498 1.296-6.545 3.888-9.128 2.579-2.596 5.635-3.894 9.141-3.894.546 0 1.078.041 1.596.096a4.744 4.744 0 01-.082-.888 5.512 5.512 0 012.81-4.81c-.04-.041-.068-.082-.109-.11-2.592-2.568-3.874-5.629-3.874-9.209 0-3.498 1.282-6.531 3.874-9.127C128.129 1.298 131.172 0 134.691 0c3.575 0 6.644 1.284 9.182 3.853 2.537 2.555 3.806 5.616 3.806 9.155 0 3.525-1.269 6.586-3.806 9.169-2.538 2.596-5.607 3.88-9.182 3.88-2.141 0-4.106-.464-5.907-1.42z" fill="#282696"/><path fill-rule="evenodd" clip-rule="evenodd" d="M53.219 1.066c10.56 0 19.686 6.299 23.847 15.344a62.559 62.559 0 00-21.541-4.727 16.07 16.07 0 00-4.489-.014 62.497 62.497 0 00-21.596 4.577c4.202-8.95 13.288-15.18 23.779-15.18z" fill="#09ABE4"/><path fill-rule="evenodd" clip-rule="evenodd" d="M79.276 23.885c.014.013.014.013.014.027 12.073 6.285 21.664 16.752 26.821 29.46H93.86c-2.129-9.237-7.394-17.463-14.489-23.27-1.377 13.2-12.578 23.543-26.097 23.543-13.602 0-24.843-10.453-26.126-23.748-7.23 5.82-12.742 14.128-14.897 23.474H0c5.211-12.857 15.061-23.46 27.326-29.719v.028a56.084 56.084 0 0112.469-4.591 15.81 15.81 0 00-2.333 8.266c0 8.732 7.094 15.837 15.811 15.837 8.704 0 15.812-7.105 15.812-15.837 0-2.992-.846-5.793-2.292-8.184a56.932 56.932 0 0112.483 4.714z" fill="#282696"/></svg>