<svg width="21" height="20" fill="none" xmlns="http://www.w3.org/2000/svg"><path d="M.842 20h19.316a.871.871 0 00.66-.292.724.724 0 00.176-.573 10.727 10.727 0 00-5.594-8.116 6.879 6.879 0 01-4.9 2.053 6.879 6.879 0 01-4.9-2.053 10.725 10.725 0 00-5.594 8.115.724.724 0 00.176.574.871.871 0 00.66.292z" fill="url(#paint0_linear)"/><path d="M6.147 10.249c.113.12.23.233.353.343a5.95 5.95 0 004 1.55c1.537 0 2.936-.59 4-1.55a6.2 6.2 0 00.677-.713 6.078 6.078 0 001.336-3.807C16.513 2.723 13.815 0 10.5 0 7.184 0 4.487 2.724 4.487 6.071a6.077 6.077 0 001.66 4.178z" fill="url(#paint1_linear)"/><defs><linearGradient id="paint0_linear" x1="24.36" y1="5" x2="-.729" y2="20.595" gradientUnits="userSpaceOnUse"><stop stop-color="#282696" stop-opacity=".96"/><stop offset="1" stop-color="#09ABE4"/></linearGradient><linearGradient id="paint1_linear" x1="22.26" y1="0" x2=".073" y2="11.393" gradientUnits="userSpaceOnUse"><stop stop-color="#282696" stop-opacity=".96"/><stop offset="1" stop-color="#09ABE4"/></linearGradient></defs></svg>